PathFileType	4	(x/y/z)	A01_PREF_T0018.trc
DataRate	CameraRate	NumFrames	NumMarkers	Units	OrigDataRate	OrigDataStartFrame	OrigNumFrames
240	240	4	48	mm	240	1	285
Frame#	Time	TOP_HEAD			R_AC			L_AC			R_ASIS			L_ASIS			R_PSIS			L_PSIS			SACRAL			L_IC			R_IC			L_GT			R_GT			R_LAT_KNEE			R_MED_KNEE			L_MED_KNEE			L_LAT_KNEE			R_TOE			L_TOE			R_1ST_MET			L_1ST_MET			L_5TH_MET			R_5TH_MET			R_LAT_ANK			R_MED_ANK			L_MED_ANK			L_LAT_ANK			L_HEEL_SUP			R_HEEL_SUP			L_HEEL_LAT			R_HEEL_LAT			L_HEEL_MED			R_HEEL_MED			R_SHANK_PROX_POST			R_SHANK_PROX_ANT			R_SHANK_DIST_ANT			R_SHANK_DIST_POST			R_THIGH_PROX_POST			R_THIGH_PROX_ANT			R_THIGH_DIST_ANT			R_THIGH_DIST_POST			L_SHANK_PROX_ANT			L_SHANK_PROX_POST			L_SHANK_DIST_POST			L_SHANK_DIST_ANT			L_THIGH_PROX_ANT			L_THIGH_PROX_POST			L_THIGH_DIST_POST			L_THIGH_DIST_ANT			
		X1	Y1	Z1	X2	Y2	Z2	X3	Y3	Z3	X4	Y4	Z4	X5	Y5	Z5	X6	Y6	Z6	X7	Y7	Z7	X8	Y8	Z8	X9	Y9	Z9	X10	Y10	Z10	X11	Y11	Z11	X12	Y12	Z12	X13	Y13	Z13	X14	Y14	Z14	X15	Y15	Z15	X16	Y16	Z16	X17	Y17	Z17	X18	Y18	Z18	X19	Y19	Z19	X20	Y20	Z20	X21	Y21	Z21	X22	Y22	Z22	X23	Y23	Z23	X24	Y24	Z24	X25	Y25	Z25	X26	Y26	Z26	X27	Y27	Z27	X28	Y28	Z28	X29	Y29	Z29	X30	Y30	Z30	X31	Y31	Z31	X32	Y32	Z32	X33	Y33	Z33	X34	Y34	Z34	X35	Y35	Z35	X36	Y36	Z36	X37	Y37	Z37	X38	Y38	Z38	X39	Y39	Z39	X40	Y40	Z40	X41	Y41	Z41	X42	Y42	Z42	X43	Y43	Z43	X44	Y44	Z44	X45	Y45	Z45	X46	Y46	Z46	X47	Y47	Z47	X48	Y48	Z48	

1	0	-544.38	1735.8	331.18	-750.08	1542.6	589.5	-833.17	1542.7	138.36	-798.84	1080.4	570.35	-787.95	1021	218.52	-1014.7	1093.6	430.49	-999.97	1078.2	301.82	-1025.6	1057.3	365.14	-828.68	1136.4	178.89	-830.2	1191.7	575.87	-837.95	939.04	174.79	-889.82	979.58	605.4	-1017	590.38	539.28	-863.5	565.99	421.03	-676.54	561.71	401.59	-705.75	562.07	243.17	-989.52	64.685	443.28	-307.4	205.16	271.1	-1070	51.196	397.82	-362.77	143.25	327.57	-389.94	122.94	199.95	-1095.1	46.735	531.96	-1186.1	150.49	507.25	-1175.6	154.41	403.96	-514.49	154.2	317.73	-540.85	135.99	251.85	-589.29	47.749	291.08	-1288.1	147.17	451.62	-567.03	27.369	257.97	-1291.3	124.71	485.73	-554.92	30.061	322.42	-1286.5	118.72	424.96	-1161	450.57	534.09	-1097.2	421.38	555.27	-1115.7	349.44	537.56	-1167.6	367.88	524.63	-968.42	860.76	579.76	-896.86	859.23	591.89	-918.45	770.48	581.01	-986.24	773.18	568.19	-626.19	509.59	251.27	-674.29	484.41	240.96	-650.98	425.57	246.03	-607.78	456.39	256.18	-729.88	821.45	222.86	-792.79	804.36	193.39	-761.01	736.81	210.03	-704.61	752.89	237.21
2	0.0041813	-539.37	1734.8	330.28	-745.02	1541.7	588.51	-828.13	1541.4	137.44	-794.19	1079.3	570.16	-782.39	1020.1	218.33	-1009.5	1092.6	429.92	-994.62	1077.2	301.28	-1020.3	1056.4	364.53	-823.11	1135.6	178.39	-824.98	1190.7	575.45	-832.22	938.07	174.62	-885.11	978.72	605.14	-1013.1	589.94	539.19	-859.36	565.21	421.33	-671.08	561.16	401.39	-700.07	561.54	242.89	-989.5	64.667	443.26	-303.32	201.11	271.83	-1069.9	51.061	397.84	-359.65	140.04	328.2	-387.02	120.36	200.56	-1094.8	46.825	531.95	-1185.3	151.34	507.17	-1174.6	155.09	403.94	-511.48	152.68	318.06	-538.01	134.61	252.05	-587.32	48.497	291.47	-1287.5	148.67	451.43	-565.49	27.845	258.33	-1290.6	125.99	485.59	-553.35	30.192	322.81	-1285.7	120.07	424.87	-1158.2	451.18	533.91	-1094.5	421.5	555.16	-1113.5	349.7	537.47	-1165.2	368.48	524.44	-963.98	860.15	579.41	-892.45	858.51	591.73	-914.22	769.81	580.89	-981.95	772.61	567.91	-620.83	508.62	251.14	-669.1	483.68	240.8	-646.09	424.75	245.92	-602.73	455.31	256.11	-724.29	820.67	222.97	-787.2	803.6	193.43	-755.36	736.06	210.11	-698.97	752.14	237.22
3	0.0083627	-534.13	1733.8	329.34	-739.74	1540.8	587.47	-822.86	1540.1	136.46	-789.31	1078.3	569.96	-776.6	1019.2	218.13	-1004.1	1091.6	429.31	-989.05	1076.2	300.7	-1014.8	1055.4	363.9	-817.31	1134.7	177.87	-819.54	1189.7	575	-826.25	937.06	174.46	-880.19	977.84	604.88	-1009.1	589.49	539.1	-855.03	564.4	421.64	-665.38	560.63	401.2	-694.17	561.04	242.6	-989.49	64.645	443.24	-299.18	196.91	272.54	-1069.8	50.918	397.87	-356.5	136.73	328.82	-384.06	117.68	201.15	-1094.6	46.914	531.95	-1184.4	152.22	507.09	-1173.6	155.82	403.93	-508.43	151.13	318.38	-535.12	133.21	252.24	-585.36	49.269	291.84	-1286.9	150.26	451.25	-563.94	28.329	258.68	-1289.8	127.36	485.45	-551.79	30.339	323.18	-1284.9	121.52	424.79	-1155.2	451.82	533.73	-1091.6	421.62	555.04	-1111.2	349.97	537.37	-1162.6	369.12	524.24	-959.33	859.52	579.04	-887.84	857.76	591.56	-909.78	769.12	580.77	-977.45	772.02	567.61	-615.25	507.65	251.01	-663.71	482.99	240.65	-641.03	423.94	245.82	-597.5	454.22	256.04	-718.47	819.87	223.06	-781.39	802.81	193.46	-749.5	735.28	210.16	-693.1	751.37	237.2
4	0.012544	-528.7	1732.8	328.36	-734.27	1539.8	586.39	-817.41	1538.7	135.44	-784.22	1077.2	569.75	-770.61	1018.2	217.93	-998.48	1090.6	428.69	-983.29	1075.1	300.1	-1009.1	1054.4	363.25	-811.31	1133.7	177.33	-813.91	1188.7	574.53	-820.07	936.03	174.28	-875.08	976.94	604.6	-1004.9	589.02	539	-850.53	563.57	421.97	-659.51	560.13	401.01	-688.06	560.61	242.32	-989.49	64.618	443.23	-295.01	192.6	273.23	-1069.7	50.766	397.89	-353.37	133.35	329.41	-381.11	114.91	201.72	-1094.3	47.002	531.94	-1183.5	153.15	507.02	-1172.5	156.59	403.93	-505.38	149.57	318.68	-532.23	131.82	252.4	-583.41	50.058	292.16	-1286.1	151.91	451.08	-562.42	28.815	259	-1288.9	128.82	485.31	-550.26	30.504	323.52	-1284	123.04	424.71	-1152	452.48	533.55	-1088.6	421.76	554.93	-1108.7	350.26	537.29	-1159.9	369.78	524.05	-954.5	858.87	578.66	-883.04	857	591.39	-905.15	768.4	580.64	-972.77	771.42	567.31	-609.51	506.72	250.9	-658.16	482.35	240.49	-635.84	423.18	245.72	-592.11	453.16	255.98	-712.47	819.05	223.12	-775.4	802.02	193.48	-743.46	734.49	210.19	-687.05	750.58	237.15
